<?xml version="1.0" encoding="UTF-8"?>
<!DOCTYPE svg PUBLIC "-//W3C//DTD SVG 1.1//EN" "http://www.w3.org/Graphics/SVG/1.1/DTD/svg11.dtd">
<svg xmlns="http://www.w3.org/2000/svg" version="1.1" width="500px" height="500px" style="shape-rendering:geometricPrecision; text-rendering:geometricPrecision; image-rendering:optimizeQuality; fill-rule:evenodd; clip-rule:evenodd" xmlns:xlink="http://www.w3.org/1999/xlink">
<g><path style="opacity:1" fill="#fefefe" d="M -0.5,-0.5 C 166.167,-0.5 332.833,-0.5 499.5,-0.5C 499.5,166.167 499.5,332.833 499.5,499.5C 332.833,499.5 166.167,499.5 -0.5,499.5C -0.5,332.833 -0.5,166.167 -0.5,-0.5 Z"/></g>
<g><path style="opacity:1" fill="#1884d0" d="M 305.5,172.5 C 289.196,162.343 272.529,152.677 255.5,143.5C 252.923,141.21 249.923,140.044 246.5,140C 227.167,151.333 207.833,162.667 188.5,174C 184.887,174.208 181.554,173.208 178.5,171C 174.633,168.302 170.633,165.802 166.5,163.5C 165.289,162.726 165.289,161.893 166.5,161C 193.416,144.419 220.582,128.253 248,112.5C 274.394,126.947 300.561,141.78 326.5,157C 330.241,158.738 333.408,161.238 336,164.5C 336.824,167.882 336.657,171.216 335.5,174.5C 327.502,170.56 319.502,170.56 311.5,174.5C 309.307,174.281 307.307,173.615 305.5,172.5 Z"/></g>
<g><path style="opacity:1" fill="#1884d0" d="M 253.5,144.5 C 270.553,154.864 287.886,164.864 305.5,174.5C 306.848,175.601 308.348,176.601 310,177.5C 310.688,178.332 310.521,178.998 309.5,179.5C 301.421,184.099 293.254,188.432 285,192.5C 272.493,186.496 260.326,179.829 248.5,172.5C 237.17,178.496 226.17,184.996 215.5,192C 214.167,192.667 212.833,192.667 211.5,192C 203.833,187.167 196.167,182.333 188.5,177.5C 208.209,165.313 228.209,153.646 248.5,142.5C 250.3,142.902 251.967,143.569 253.5,144.5 Z"/></g>
<g><path style="opacity:1" fill="#e8f2fa" d="M 255.5,143.5 C 272.529,152.677 289.196,162.343 305.5,172.5C 305.5,173.167 305.5,173.833 305.5,174.5C 287.886,164.864 270.553,154.864 253.5,144.5C 254.492,144.672 255.158,144.338 255.5,143.5 Z"/></g>
<g><path style="opacity:1" fill="#3ea7ff" d="M 166.5,168.5 C 194.075,185.207 221.909,201.54 250,217.5C 272.069,204.547 294.235,191.714 316.5,179C 323.743,177.372 328.909,179.872 332,186.5C 332.667,199.833 332.667,213.167 332,226.5C 331.333,227.833 330.667,229.167 330,230.5C 304.092,246.066 277.925,261.233 251.5,276C 248.983,276.257 246.65,275.59 244.5,274C 227.584,263.959 210.75,253.792 194,243.5C 193.503,240.854 193.336,238.187 193.5,235.5C 188.118,236.445 183.452,238.612 179.5,242C 182.426,247.262 185.759,252.262 189.5,257C 190.899,257.595 192.232,257.428 193.5,256.5C 212.267,267.633 231.101,278.633 250,289.5C 275.899,274.8 301.732,259.967 327.5,245C 329.025,243.991 330.692,243.491 332.5,243.5C 332.666,250.841 332.5,258.174 332,265.5C 331.215,267.286 330.049,268.786 328.5,270C 302.561,285.22 276.394,300.053 250,314.5C 225.843,300.349 201.677,286.183 177.5,272C 171.683,268.849 168.183,264.016 167,257.5C 166.333,245.167 166.333,232.833 167,220.5C 170.438,213.2 175.938,211.033 183.5,214C 205.374,227.102 227.374,239.935 249.5,252.5C 267.119,243.357 284.452,233.69 301.5,223.5C 302.988,225.149 303.988,227.149 304.5,229.5C 312.369,221.129 319.702,212.296 326.5,203C 318.507,202.5 310.507,202.334 302.5,202.5C 302.777,205.448 302.444,208.281 301.5,211C 284.399,220.967 267.232,230.8 250,240.5C 222.269,224.718 194.769,208.552 167.5,192C 166.518,184.253 166.185,176.42 166.5,168.5 Z"/></g>
<g><path style="opacity:1" fill="#1a85d0" d="M 246.5,179.5 C 250.105,179.799 253.439,180.965 256.5,183C 262.5,186.667 268.5,190.333 274.5,194C 267.167,198.333 259.833,202.667 252.5,207C 249.581,207.552 246.914,206.885 244.5,205C 237.998,201.25 231.665,197.25 225.5,193C 232.565,188.476 239.565,183.976 246.5,179.5 Z"/></g>
<g><path style="opacity:1" fill="#353535" d="M 256.5,318.5 C 256.173,323.544 256.506,328.544 257.5,333.5C 258.107,333.376 258.44,333.043 258.5,332.5C 266.562,329.359 272.729,331.692 277,339.5C 277.812,346.747 277.646,353.914 276.5,361C 273.571,361.777 270.737,361.61 268,360.5C 267.667,354.833 267.333,349.167 267,343.5C 263.381,340.657 260.048,340.99 257,344.5C 256.667,349.833 256.333,355.167 256,360.5C 253,361.833 250,361.833 247,360.5C 246.333,346.167 246.333,331.833 247,317.5C 249.553,315.271 252.386,314.938 255.5,316.5C 256.298,316.957 256.631,317.624 256.5,318.5 Z"/></g>
<g><path style="opacity:1" fill="#393939" d="M 377.5,315.5 C 380.602,315.154 383.435,315.821 386,317.5C 386.667,331.5 386.667,345.5 386,359.5C 382.541,362.116 379.041,362.116 375.5,359.5C 366.603,363.891 360.103,361.558 356,352.5C 352.73,342.537 355.897,335.37 365.5,331C 368.711,330.202 371.711,330.702 374.5,332.5C 375.329,327.533 375.829,322.533 376,317.5C 376.717,316.956 377.217,316.289 377.5,315.5 Z"/></g>
<g><path style="opacity:1" fill="#43a8ff" d="M 219.5,317.5 C 226.724,316.597 233.224,318.264 239,322.5C 239.746,325.789 238.58,328.289 235.5,330C 232.178,329.595 228.845,328.762 225.5,327.5C 221.077,328.342 220.41,330.508 223.5,334C 228.296,334.91 232.963,336.243 237.5,338C 239.049,339.214 240.215,340.714 241,342.5C 242.736,358.425 235.569,364.925 219.5,362C 213.806,360.011 210.973,356.178 211,350.5C 215.255,346.276 219.088,346.776 222.5,352C 224.833,352.667 227.167,352.667 229.5,352C 232.167,350 232.167,348 229.5,346C 224.617,344.928 219.95,343.261 215.5,341C 207.86,331.645 209.194,323.811 219.5,317.5 Z"/></g>
<g><path style="opacity:1" fill="#3fa7ff" d="M 159.5,318.5 C 162.448,318.223 165.281,318.556 168,319.5C 168.667,330.167 168.667,340.833 168,351.5C 164.339,360.82 157.505,364.32 147.5,362C 142.121,360.323 139.621,356.823 140,351.5C 141.182,349.643 142.849,348.643 145,348.5C 147.402,349.733 149.902,350.733 152.5,351.5C 154.481,351.563 156.148,350.896 157.5,349.5C 158.167,339.137 158.833,328.804 159.5,318.5 Z"/></g>
<g><path style="opacity:1" fill="#3fa7ff" d="M 193.5,350.5 C 190.375,349.521 187.042,349.187 183.5,349.5C 183.5,352.833 183.5,356.167 183.5,359.5C 182.486,360.765 180.986,361.431 179,361.5C 177.019,361.371 175.353,360.704 174,359.5C 173.185,346.121 173.352,332.788 174.5,319.5C 181.811,318.335 189.144,318.169 196.5,319C 205.591,322.438 209.091,328.938 207,338.5C 206.227,341.211 205.06,343.711 203.5,346C 204.53,348.56 205.697,351.06 207,353.5C 208.668,360.073 206.168,362.907 199.5,362C 197.328,358.153 195.328,354.319 193.5,350.5 Z"/></g>
<g><path style="opacity:1" fill="#a1a1a1" d="M 256.5,318.5 C 257.167,323.167 257.833,327.833 258.5,332.5C 258.44,333.043 258.107,333.376 257.5,333.5C 256.506,328.544 256.173,323.544 256.5,318.5 Z"/></g>
<g><path style="opacity:1" fill="#f4f9ff" d="M 184.5,328.5 C 188.584,328.043 192.417,328.71 196,330.5C 198.497,334.351 197.663,337.184 193.5,339C 190.518,339.498 187.518,339.665 184.5,339.5C 184.5,335.833 184.5,332.167 184.5,328.5 Z"/></g>
<g><path style="opacity:1" fill="#373737" d="M 294.5,329.5 C 312.087,330.352 317.92,339.019 312,355.5C 302.331,365.13 292.997,364.797 284,354.5C 279.417,342.63 282.917,334.297 294.5,329.5 Z"/></g>
<g><path style="opacity:1" fill="#393939" d="M 320.5,330.5 C 323.685,330.02 326.519,330.686 329,332.5C 329.333,338.167 329.667,343.833 330,349.5C 332.925,352.059 335.925,352.059 339,349.5C 339.333,343.833 339.667,338.167 340,332.5C 343.333,329.833 346.667,329.833 350,332.5C 350.667,341.5 350.667,350.5 350,359.5C 347.196,361.344 344.03,362.011 340.5,361.5C 340.026,357.843 338.693,357.676 336.5,361C 327.457,362.972 321.623,359.472 319,350.5C 318.333,344.5 318.333,338.5 319,332.5C 319.717,331.956 320.217,331.289 320.5,330.5 Z"/></g>
<g><path style="opacity:1" fill="#f6f6f6" d="M 295.5,340.5 C 301.83,339.666 304.663,342.333 304,348.5C 301.177,351.571 297.844,352.238 294,350.5C 291.729,346.697 292.229,343.363 295.5,340.5 Z"/></g>
<g><path style="opacity:1" fill="#f6f6f6" d="M 367.5,341.5 C 375.877,341.274 377.544,344.441 372.5,351C 366.498,351.993 364.332,349.493 366,343.5C 366.717,342.956 367.217,342.289 367.5,341.5 Z"/></g>
<g><path style="opacity:1" fill="#84c5ff" d="M 193.5,350.5 C 190.5,350.5 187.5,350.5 184.5,350.5C 184.81,353.713 184.477,356.713 183.5,359.5C 183.5,356.167 183.5,352.833 183.5,349.5C 187.042,349.187 190.375,349.521 193.5,350.5 Z"/></g>
<g><path style="opacity:1" fill="#75bfff" d="M 171.5,382.5 C 173.43,386.373 174.097,390.706 173.5,395.5C 170.813,395.664 168.146,395.497 165.5,395C 162.39,388.737 164.39,385.904 171.5,386.5C 171.5,385.167 171.5,383.833 171.5,382.5 Z"/></g>
<g><path style="opacity:1" fill="#58b3ff" d="M 353.5,394.5 C 356.167,392.167 356.167,389.833 353.5,387.5C 355.117,386.411 355.95,384.744 356,382.5C 356.667,386.833 356.667,391.167 356,395.5C 355.329,394.748 354.496,394.414 353.5,394.5 Z"/></g>
<g><path style="opacity:1" fill="#56b0ff" d="M 135.5,383.5 C 137.857,383.337 140.19,383.503 142.5,384C 144.725,386.025 145.059,388.358 143.5,391C 141.19,391.497 138.857,391.663 136.5,391.5C 135.104,392.419 134.77,389.753 135.5,383.5 Z"/></g>
<g><path style="opacity:1" fill="#f8fbff" d="M 136.5,384.5 C 141.479,383.65 143.479,385.483 142.5,390C 140.527,390.495 138.527,390.662 136.5,390.5C 136.5,388.5 136.5,386.5 136.5,384.5 Z"/></g>
<g><path style="opacity:1" fill="#60b5ff" d="M 260.5,387.5 C 262.772,386.236 265.105,386.402 267.5,388C 266.726,390.405 266.226,392.905 266,395.5C 265.713,393.109 265.213,390.776 264.5,388.5C 263.311,387.571 261.978,387.238 260.5,387.5 Z"/></g>
<g><path style="opacity:1" fill="#f6faff" d="M 166.5,387.5 C 171.328,387.385 172.661,389.552 170.5,394C 165.57,394.427 164.237,392.26 166.5,387.5 Z"/></g>
<g><path style="opacity:1" fill="#56b1ff" d="M 231.5,386.5 C 232.314,388.631 232.814,390.964 233,393.5C 234.938,394.86 236.604,394.527 238,392.5C 238.333,390.5 238.667,388.5 239,386.5C 239.667,389.5 239.667,392.5 239,395.5C 236.766,395.626 234.432,395.293 232,394.5C 231.503,391.854 231.336,389.187 231.5,386.5 Z"/></g>
<g><path style="opacity:1" fill="#89c8ff" d="M 282.5,394.5 C 283.073,391.853 283.74,389.187 284.5,386.5C 285.833,389.5 285.833,392.5 284.5,395.5C 283.817,395.137 283.15,394.804 282.5,394.5 Z"/></g>
<g><path style="opacity:1" fill="#6fbbff" d="M 310.5,386.5 C 315.249,387.086 319.915,387.253 324.5,387C 325.61,389.737 325.777,392.571 325,395.5C 324.667,393.167 324.333,390.833 324,388.5C 322.667,387.167 321.333,387.167 320,388.5C 319,397.833 318,397.833 317,388.5C 315.951,387.483 314.784,387.316 313.5,388C 312.88,390.473 312.214,392.973 311.5,395.5C 310.516,392.572 310.183,389.572 310.5,386.5 Z"/></g>
<g><path style="opacity:1" fill="#70bbff" d="M 339.5,389.5 C 339.281,388.325 339.614,387.325 340.5,386.5C 341.665,387.86 341.332,388.86 339.5,389.5 Z"/></g>
<g><path style="opacity:1" fill="#f4f9ff" d="M 353.5,387.5 C 356.167,389.833 356.167,392.167 353.5,394.5C 351.784,394.371 350.117,394.038 348.5,393.5C 348.019,389.651 349.686,387.651 353.5,387.5 Z"/></g>
<g><path style="opacity:1" fill="#6fbbff" d="M 188.5,384.5 C 189.534,385.687 190.867,386.52 192.5,387C 190.709,389.106 190.042,391.606 190.5,394.5C 191.552,394.351 192.552,394.517 193.5,395C 191.888,395.72 190.388,395.554 189,394.5C 188.774,391.905 188.274,389.405 187.5,387C 188.252,386.329 188.586,385.496 188.5,384.5 Z"/></g>
<g><path style="opacity:1" fill="#6ab9ff" d="M 294.5,387.5 C 295.302,386.048 295.802,384.382 296,382.5C 296.667,386.833 296.667,391.167 296,395.5C 294.026,395.374 291.859,395.208 289.5,395C 287.604,393.192 287.104,391.025 288,388.5C 290.016,386.392 292.183,386.058 294.5,387.5 Z"/></g>
<g><path style="opacity:1" fill="#f5faff" d="M 294.5,387.5 C 295.694,389.484 295.694,391.484 294.5,393.5C 289.915,395.019 288.415,393.352 290,388.5C 291.356,387.62 292.856,387.286 294.5,387.5 Z"/></g>
<g><path style="opacity:1" fill="#71bdff" d="M 300.5,386.5 C 306.831,386.11 309.164,389.11 307.5,395.5C 304.881,395.768 302.381,395.435 300,394.5C 299.316,393.216 299.483,392.049 300.5,391C 302.134,390.506 303.801,390.34 305.5,390.5C 305.5,389.5 305.5,388.5 305.5,387.5C 303.738,387.357 302.071,387.691 300.5,388.5C 299.537,388.03 299.537,387.363 300.5,386.5 Z"/></g>
<g><path style="opacity:1" fill="#7ac0ff" d="M 271.5,387.5 C 273.026,388.492 273.693,389.992 273.5,392C 273.167,393.167 272.833,394.333 272.5,395.5C 271.52,392.914 271.187,390.247 271.5,387.5 Z"/></g>
<g><path style="opacity:1" fill="#59b3ff" d="M 147.5,386.5 C 148.289,386.783 148.956,387.283 149.5,388C 148.726,390.405 148.226,392.905 148,395.5C 147.502,392.518 147.335,389.518 147.5,386.5 Z"/></g>
<g><path style="opacity:1" fill="#76beff" d="M 155.5,387.5 C 160.845,385.67 163.012,387.67 162,393.5C 159.582,395.68 156.916,396.013 154,394.5C 151.755,391.43 152.255,389.096 155.5,387.5 Z"/></g>
<g><path style="opacity:1" fill="#f5faff" d="M 155.5,387.5 C 160.328,387.385 161.661,389.552 159.5,394C 154.57,394.427 153.237,392.26 155.5,387.5 Z"/></g>
<g><path style="opacity:1" fill="#71bcff" d="M 206.5,386.5 C 208.199,386.34 209.866,386.506 211.5,387C 205.004,388.562 205.171,390.062 212,391.5C 212.684,392.784 212.517,393.951 211.5,395C 209.421,395.808 207.421,395.641 205.5,394.5C 206.995,394.522 208.662,394.189 210.5,393.5C 209.345,392.05 207.845,391.05 206,390.5C 205.421,389.072 205.588,387.738 206.5,386.5 Z"/></g>
<g><path style="opacity:1" fill="#59b2ff" d="M 243.5,393.5 C 242.387,392.054 242.22,390.387 243,388.5C 244.836,390.604 247.002,390.938 249.5,389.5C 248.286,387.931 246.619,387.098 244.5,387C 248.128,385.684 250.461,386.851 251.5,390.5C 248.384,390.92 245.717,391.92 243.5,393.5 Z"/></g>
<g><path style="opacity:1" fill="#53b0ff" d="M 260.5,387.5 C 259.772,390.079 259.272,392.746 259,395.5C 258.333,392.5 258.333,389.5 259,386.5C 259.383,387.056 259.883,387.389 260.5,387.5 Z"/></g>
<g><path style="opacity:1" fill="#fcfdff" d="M 301.5,391.5 C 302.978,391.238 304.311,391.571 305.5,392.5C 304.68,394.111 303.346,394.778 301.5,394.5C 301.5,393.5 301.5,392.5 301.5,391.5 Z"/></g>
<g><path style="opacity:1" fill="#57b1ff" d="M 353.5,387.5 C 349.686,387.651 348.019,389.651 348.5,393.5C 346.668,390.046 347.668,387.713 351.5,386.5C 352.416,386.543 353.083,386.876 353.5,387.5 Z"/></g>
<g><path style="opacity:1" fill="#86c4ff" d="M 182.5,394.5 C 180.777,395.807 178.943,395.807 177,394.5C 176.182,391.773 176.348,389.106 177.5,386.5C 178.314,388.766 178.814,391.1 179,393.5C 180.011,394.337 181.178,394.67 182.5,394.5 Z"/></g>
<g><path style="opacity:1" fill="#67b8ff" d="M 196.5,386.5 C 203.486,386.331 205.153,389.164 201.5,395C 194.416,395.475 192.749,392.642 196.5,386.5 Z"/></g>
<g><path style="opacity:1" fill="#f7fbff" d="M 197.5,387.5 C 202.493,387.997 203.493,390.164 200.5,394C 195.382,393.824 194.382,391.658 197.5,387.5 Z"/></g>
<g><path style="opacity:1" fill="#62b6ff" d="M 220.5,386.5 C 222.877,386.784 225.044,386.784 227,386.5C 227.667,390.5 227.667,394.5 227,398.5C 226.667,397.167 226.333,395.833 226,394.5C 218.568,395.889 216.735,393.222 220.5,386.5 Z"/></g>
<g><path style="opacity:1" fill="#f6fbff" d="M 221.5,387.5 C 226.493,387.997 227.493,390.164 224.5,394C 219.382,393.824 218.382,391.658 221.5,387.5 Z"/></g>
<g><path style="opacity:1" fill="#84c4ff" d="M 282.5,394.5 C 280.777,395.807 278.943,395.807 277,394.5C 276.182,391.773 276.348,389.106 277.5,386.5C 278.314,388.766 278.814,391.1 279,393.5C 280.011,394.337 281.178,394.67 282.5,394.5 Z"/></g>
<g><path style="opacity:1" fill="#5bb3ff" d="M 359.5,386.5 C 361.792,386.244 363.959,386.577 366,387.5C 366.667,390.167 366.667,392.833 366,395.5C 364.312,394.675 364.145,393.675 365.5,392.5C 363.922,391.702 362.256,391.202 360.5,391C 362.256,390.798 363.922,390.298 365.5,389.5C 364.252,387.31 362.586,386.977 360.5,388.5C 359.702,388.043 359.369,387.376 359.5,386.5 Z"/></g>
<g><path style="opacity:1" fill="#76bfff" d="M 182.5,394.5 C 183.073,391.853 183.74,389.187 184.5,386.5C 185.833,389.5 185.833,392.5 184.5,395.5C 183.817,395.137 183.15,394.804 182.5,394.5 Z"/></g>
<g><path style="opacity:1" fill="#6dbaff" d="M 339.5,389.5 C 339.553,392.061 338.553,394.061 336.5,395.5C 334.981,392.956 333.648,390.289 332.5,387.5C 332.846,386.304 333.346,386.304 334,387.5C 334.815,389.623 335.815,391.623 337,393.5C 337.608,391.934 338.442,390.6 339.5,389.5 Z"/></g>
<g><path style="opacity:1" fill="#6fbcff" d="M 369.5,387.5 C 370.973,389.772 373.14,391.105 376,391.5C 376.684,392.784 376.517,393.951 375.5,395C 373.421,395.808 371.421,395.641 369.5,394.5C 370.995,394.522 372.662,394.189 374.5,393.5C 373.345,392.05 371.845,391.05 370,390.5C 369.517,389.552 369.351,388.552 369.5,387.5 Z"/></g>
<g><path style="opacity:1" fill="#66b7ff" d="M 243.5,393.5 C 245.839,394.637 248.172,394.804 250.5,394C 247.816,396.145 245.483,395.978 243.5,393.5 Z"/></g>
<g><path style="opacity:1" fill="#6ab7ff" d="M 348.5,393.5 C 350.117,394.038 351.784,394.371 353.5,394.5C 352.903,395.139 352.07,395.472 351,395.5C 349.624,395.316 348.791,394.649 348.5,393.5 Z"/></g>
</svg>
