<?xml version="1.0" encoding="UTF-8"?>
<!DOCTYPE svg PUBLIC "-//W3C//DTD SVG 1.1//EN" "http://www.w3.org/Graphics/SVG/1.1/DTD/svg11.dtd">
<svg xmlns="http://www.w3.org/2000/svg" version="1.1" width="500px" height="500px" style="shape-rendering:geometricPrecision; text-rendering:geometricPrecision; image-rendering:optimizeQuality; fill-rule:evenodd; clip-rule:evenodd" xmlns:xlink="http://www.w3.org/1999/xlink">
<g><path style="opacity:1" fill="#2d89d2" d="M 336.5,166.5 C 336.806,169.385 336.473,172.052 335.5,174.5C 332.119,173.188 328.619,172.188 325,171.5C 320.477,172.264 316.143,173.598 312,175.5C 310.467,175.227 308.967,174.894 307.5,174.5C 307.5,174.167 307.5,173.833 307.5,173.5C 307.027,172.094 306.027,171.427 304.5,171.5C 303.167,171.167 301.833,170.833 300.5,170.5C 299.341,168.75 297.674,167.75 295.5,167.5C 295.158,166.662 294.492,166.328 293.5,166.5C 292.341,164.75 290.674,163.75 288.5,163.5C 288.158,162.662 287.492,162.328 286.5,162.5C 285.341,160.75 283.674,159.75 281.5,159.5C 281.5,159.167 281.5,158.833 281.5,158.5C 281.027,157.094 280.027,156.427 278.5,156.5C 277.833,156.5 277.167,156.5 276.5,156.5C 276.158,155.662 275.492,155.328 274.5,155.5C 274.5,155.167 274.5,154.833 274.5,154.5C 274.027,153.094 273.027,152.427 271.5,152.5C 270.833,152.5 270.167,152.5 269.5,152.5C 269.158,151.662 268.492,151.328 267.5,151.5C 266.341,149.75 264.674,148.75 262.5,148.5C 262.158,147.662 261.492,147.328 260.5,147.5C 260.027,146.094 259.027,145.427 257.5,145.5C 257.158,144.662 256.492,144.328 255.5,144.5C 255.158,143.662 254.492,143.328 253.5,143.5C 252,141.821 250.167,140.488 248,139.5C 240.993,143.696 234.16,148.03 227.5,152.5C 222.976,154.043 218.976,156.377 215.5,159.5C 213.326,159.75 211.659,160.75 210.5,162.5C 208.326,162.75 206.659,163.75 205.5,165.5C 199.565,168.136 193.898,171.302 188.5,175C 186.119,175.738 184.119,175.238 182.5,173.5C 182.027,172.094 181.027,171.427 179.5,171.5C 178.508,171.672 177.842,171.338 177.5,170.5C 177.027,169.094 176.027,168.427 174.5,168.5C 173.508,168.672 172.842,168.338 172.5,167.5C 172.027,166.094 171.027,165.427 169.5,165.5C 167.606,164.952 165.94,163.952 164.5,162.5C 164.977,161.522 165.643,160.689 166.5,160C 191.5,145 216.5,130 241.5,115C 245.333,112.247 249.333,111.914 253.5,114C 278.833,128.667 304.167,143.333 329.5,158C 333.181,159.837 335.515,162.67 336.5,166.5 Z M 253.5,143.5 C 251.255,142.365 248.922,141.865 246.5,142C 240.769,145.525 235.103,149.025 229.5,152.5C 228.833,152.5 228.167,152.5 227.5,152.5C 234.16,148.03 240.993,143.696 248,139.5C 250.167,140.488 252,141.821 253.5,143.5 Z M 257.5,145.5 C 259.027,145.427 260.027,146.094 260.5,147.5C 258.973,147.573 257.973,146.906 257.5,145.5 Z M 262.5,148.5 C 264.674,148.75 266.341,149.75 267.5,151.5C 265.326,151.25 263.659,150.25 262.5,148.5 Z M 227.5,152.5 C 227.167,153.167 226.833,153.833 226.5,154.5C 223.24,155.774 220.24,157.44 217.5,159.5C 216.833,159.5 216.167,159.5 215.5,159.5C 218.976,156.377 222.976,154.043 227.5,152.5 Z M 269.5,152.5 C 270.167,152.5 270.833,152.5 271.5,152.5C 271.833,153.167 272.167,153.833 272.5,154.5C 270.973,154.573 269.973,153.906 269.5,152.5 Z M 276.5,156.5 C 277.167,156.5 277.833,156.5 278.5,156.5C 278.833,157.167 279.167,157.833 279.5,158.5C 277.973,158.573 276.973,157.906 276.5,156.5 Z M 215.5,159.5 C 215.167,160.167 214.833,160.833 214.5,161.5C 213.508,161.328 212.842,161.662 212.5,162.5C 211.833,162.5 211.167,162.5 210.5,162.5C 211.659,160.75 213.326,159.75 215.5,159.5 Z M 281.5,159.5 C 283.674,159.75 285.341,160.75 286.5,162.5C 284.326,162.25 282.659,161.25 281.5,159.5 Z M 210.5,162.5 C 210.167,163.167 209.833,163.833 209.5,164.5C 208.508,164.328 207.842,164.662 207.5,165.5C 206.833,165.5 206.167,165.5 205.5,165.5C 206.659,163.75 208.326,162.75 210.5,162.5 Z M 288.5,163.5 C 290.674,163.75 292.341,164.75 293.5,166.5C 291.326,166.25 289.659,165.25 288.5,163.5 Z M 295.5,167.5 C 297.674,167.75 299.341,168.75 300.5,170.5C 298.326,170.25 296.659,169.25 295.5,167.5 Z M 300.5,170.5 C 301.833,170.833 303.167,171.167 304.5,171.5C 304.833,172.167 305.167,172.833 305.5,173.5C 303.326,173.25 301.659,172.25 300.5,170.5 Z"/></g>
<g><path style="opacity:1" fill="#2c88d2" d="M 253.5,143.5 C 253.842,144.338 254.508,144.672 255.5,144.5C 255.842,145.338 256.508,145.672 257.5,145.5C 257.973,146.906 258.973,147.573 260.5,147.5C 260.842,148.338 261.508,148.672 262.5,148.5C 263.659,150.25 265.326,151.25 267.5,151.5C 267.842,152.338 268.508,152.672 269.5,152.5C 269.973,153.906 270.973,154.573 272.5,154.5C 272.842,155.338 273.508,155.672 274.5,155.5C 274.842,156.338 275.508,156.672 276.5,156.5C 276.973,157.906 277.973,158.573 279.5,158.5C 279.842,159.338 280.508,159.672 281.5,159.5C 282.659,161.25 284.326,162.25 286.5,162.5C 286.842,163.338 287.508,163.672 288.5,163.5C 289.659,165.25 291.326,166.25 293.5,166.5C 293.842,167.338 294.508,167.672 295.5,167.5C 296.659,169.25 298.326,170.25 300.5,170.5C 301.659,172.25 303.326,173.25 305.5,173.5C 305.842,174.338 306.508,174.672 307.5,174.5C 308.315,175.837 309.482,176.837 311,177.5C 311.617,178.449 311.451,179.282 310.5,180C 302.5,184.333 294.5,188.667 286.5,193C 284.934,193.765 283.601,193.598 282.5,192.5C 282.027,191.094 281.027,190.427 279.5,190.5C 276.24,189.226 273.24,187.56 270.5,185.5C 270.027,184.094 269.027,183.427 267.5,183.5C 265.847,183.34 264.514,182.674 263.5,181.5C 263.027,180.094 262.027,179.427 260.5,179.5C 259.508,179.672 258.842,179.338 258.5,178.5C 258.027,177.094 257.027,176.427 255.5,176.5C 252.606,175.039 249.606,174.206 246.5,174C 235.675,180.828 224.508,186.995 213,192.5C 208.427,190.799 204.261,188.466 200.5,185.5C 200.027,184.094 199.027,183.427 197.5,183.5C 196.508,183.672 195.842,183.338 195.5,182.5C 195.027,181.094 194.027,180.427 192.5,180.5C 190.973,180.573 189.973,179.906 189.5,178.5C 189.5,177.833 189.5,177.167 189.5,176.5C 193.995,172.749 198.995,169.749 204.5,167.5C 206.027,167.573 207.027,166.906 207.5,165.5C 207.842,164.662 208.508,164.328 209.5,164.5C 211.027,164.573 212.027,163.906 212.5,162.5C 212.842,161.662 213.508,161.328 214.5,161.5C 216.027,161.573 217.027,160.906 217.5,159.5C 220.24,157.44 223.24,155.774 226.5,154.5C 228.027,154.573 229.027,153.906 229.5,152.5C 235.103,149.025 240.769,145.525 246.5,142C 248.922,141.865 251.255,142.365 253.5,143.5 Z"/></g>
<g><path style="opacity:0.737" fill="#a5ccec" d="M 227.5,152.5 C 228.167,152.5 228.833,152.5 229.5,152.5C 229.027,153.906 228.027,154.573 226.5,154.5C 226.833,153.833 227.167,153.167 227.5,152.5 Z"/></g>
<g><path style="opacity:0.38" fill="#acd0ee" d="M 271.5,152.5 C 273.027,152.427 274.027,153.094 274.5,154.5C 273.833,154.5 273.167,154.5 272.5,154.5C 272.167,153.833 271.833,153.167 271.5,152.5 Z"/></g>
<g><path style="opacity:0.396" fill="#a9cfed" d="M 278.5,156.5 C 280.027,156.427 281.027,157.094 281.5,158.5C 280.833,158.5 280.167,158.5 279.5,158.5C 279.167,157.833 278.833,157.167 278.5,156.5 Z"/></g>
<g><path style="opacity:0.62" fill="#b5d6f0" d="M 215.5,159.5 C 216.167,159.5 216.833,159.5 217.5,159.5C 217.027,160.906 216.027,161.573 214.5,161.5C 214.833,160.833 215.167,160.167 215.5,159.5 Z"/></g>
<g><path style="opacity:0.663" fill="#afd2ee" d="M 210.5,162.5 C 211.167,162.5 211.833,162.5 212.5,162.5C 212.027,163.906 211.027,164.573 209.5,164.5C 209.833,163.833 210.167,163.167 210.5,162.5 Z"/></g>
<g><path style="opacity:0.337" fill="#b7d7f0" d="M 169.5,165.5 C 171.027,165.427 172.027,166.094 172.5,167.5C 170.973,167.573 169.973,166.906 169.5,165.5 Z"/></g>
<g><path style="opacity:0.706" fill="#a8cfed" d="M 205.5,165.5 C 206.167,165.5 206.833,165.5 207.5,165.5C 207.027,166.906 206.027,167.573 204.5,167.5C 204.833,166.833 205.167,166.167 205.5,165.5 Z"/></g>
<g><path style="opacity:0.129" fill="#d5eaff" d="M 168.5,169.5 C 166.537,176.424 165.87,183.757 166.5,191.5C 165.344,184.011 165.178,176.345 166,168.5C 167.159,167.434 167.992,167.767 168.5,169.5 Z"/></g>
<g><path style="opacity:1" fill="#4eaaff" d="M 168.5,169.5 C 195.71,185.024 222.876,200.69 250,216.5C 271.791,204.023 293.624,191.69 315.5,179.5C 318.167,179.167 320.833,178.833 323.5,178.5C 329.134,179.402 332.301,182.735 333,188.5C 333.667,200.833 333.667,213.167 333,225.5C 332.439,227.725 331.439,229.725 330,231.5C 303.48,247.093 276.814,262.426 250,277.5C 249.235,277.43 248.735,277.097 248.5,276.5C 248.027,275.094 247.027,274.427 245.5,274.5C 238.903,271.225 232.57,267.558 226.5,263.5C 226.027,262.094 225.027,261.427 223.5,261.5C 222.508,261.672 221.842,261.338 221.5,260.5C 221.027,259.094 220.027,258.427 218.5,258.5C 211.554,254.691 204.554,250.858 197.5,247C 195.365,246.124 194.031,244.624 193.5,242.5C 193.5,240.167 193.5,237.833 193.5,235.5C 192.209,235.263 191.209,235.596 190.5,236.5C 186.957,238.06 183.623,239.893 180.5,242C 183.594,247.43 187.094,252.596 191,257.5C 192.588,255.032 194.422,254.866 196.5,257C 213.833,267.333 231.167,277.667 248.5,288C 251.017,288.257 253.35,287.59 255.5,286C 265.564,279.636 275.897,273.803 286.5,268.5C 288.027,268.573 289.027,267.906 289.5,266.5C 302.006,258.41 315.006,251.077 328.5,244.5C 329.583,244.461 330.583,244.127 331.5,243.5C 332.497,250.468 332.83,257.468 332.5,264.5C 332.067,267.195 330.734,269.362 328.5,271C 302.779,285.524 277.112,300.024 251.5,314.5C 250.5,314.5 249.5,314.5 248.5,314.5C 243.963,312.07 239.63,309.403 235.5,306.5C 235.027,305.094 234.027,304.427 232.5,304.5C 227.5,302.336 222.833,299.669 218.5,296.5C 218.027,295.094 217.027,294.427 215.5,294.5C 214.508,294.672 213.842,294.338 213.5,293.5C 213.027,292.094 212.027,291.427 210.5,291.5C 205.5,289.336 200.833,286.669 196.5,283.5C 196.027,282.094 195.027,281.427 193.5,281.5C 192.508,281.672 191.842,281.338 191.5,280.5C 191.027,279.094 190.027,278.427 188.5,278.5C 187.508,278.672 186.842,278.338 186.5,277.5C 186.027,276.094 185.027,275.427 183.5,275.5C 175.617,273.117 170.117,268.117 167,260.5C 165.485,247.871 165.152,235.205 166,222.5C 168.332,214.078 173.832,210.912 182.5,213C 204.964,225.967 227.297,239.134 249.5,252.5C 267.244,242.879 284.744,232.879 302,222.5C 303,224.5 304,226.5 305,228.5C 311.365,220.642 317.865,212.975 324.5,205.5C 325.267,204.828 325.934,203.995 326.5,203C 322.179,202.501 317.846,202.334 313.5,202.5C 310.5,202.5 307.5,202.5 304.5,202.5C 302.631,204.635 301.964,207.302 302.5,210.5C 286.061,220.559 269.395,230.392 252.5,240C 248.966,240.864 245.966,240.031 243.5,237.5C 243.027,236.094 242.027,235.427 240.5,235.5C 227.235,228.224 214.235,220.557 201.5,212.5C 201.027,211.094 200.027,210.427 198.5,210.5C 197.508,210.672 196.842,210.338 196.5,209.5C 196.027,208.094 195.027,207.427 193.5,207.5C 190.24,206.226 187.24,204.56 184.5,202.5C 184.027,201.094 183.027,200.427 181.5,200.5C 180.508,200.672 179.842,200.338 179.5,199.5C 179.027,198.094 178.027,197.427 176.5,197.5C 175.508,197.672 174.842,197.338 174.5,196.5C 174.027,195.094 173.027,194.427 171.5,194.5C 169.326,194.25 167.659,193.25 166.5,191.5C 165.87,183.757 166.537,176.424 168.5,169.5 Z"/></g>
<g><path style="opacity:0.392" fill="#afd2ee" d="M 174.5,168.5 C 176.027,168.427 177.027,169.094 177.5,170.5C 175.973,170.573 174.973,169.906 174.5,168.5 Z"/></g>
<g><path style="opacity:0.542" fill="#a6cfed" d="M 336.5,166.5 C 337.803,169.355 337.803,172.355 336.5,175.5C 335.893,175.376 335.56,175.043 335.5,174.5C 336.473,172.052 336.806,169.385 336.5,166.5 Z"/></g>
<g><path style="opacity:0.345" fill="#b3d5ef" d="M 179.5,171.5 C 181.027,171.427 182.027,172.094 182.5,173.5C 180.973,173.573 179.973,172.906 179.5,171.5 Z"/></g>
<g><path style="opacity:0.404" fill="#a8cfed" d="M 304.5,171.5 C 306.027,171.427 307.027,172.094 307.5,173.5C 306.833,173.5 306.167,173.5 305.5,173.5C 305.167,172.833 304.833,172.167 304.5,171.5 Z"/></g>
<g><path style="opacity:0.576" fill="#aad0ed" d="M 189.5,176.5 C 189.5,177.167 189.5,177.833 189.5,178.5C 186.833,177.833 186.833,177.167 189.5,176.5 Z"/></g>
<g><path style="opacity:0.431" fill="#a6ceec" d="M 255.5,176.5 C 257.027,176.427 258.027,177.094 258.5,178.5C 256.973,178.573 255.973,177.906 255.5,176.5 Z"/></g>
<g><path style="opacity:0.902" fill="#b1d7ff" d="M 323.5,178.5 C 320.833,178.833 318.167,179.167 315.5,179.5C 318.04,177.587 320.707,177.254 323.5,178.5 Z"/></g>
<g><path style="opacity:1" fill="#388cd3" d="M 226.5,194.5 C 225.167,193.5 225.167,192.5 226.5,191.5C 233.544,186.555 241.044,182.222 249,178.5C 257.929,183.044 266.429,188.21 274.5,194C 267.104,199.56 259.104,204.06 250.5,207.5C 241.884,204.194 233.884,199.861 226.5,194.5 Z"/></g>
<g><path style="opacity:0.318" fill="#b7d7f0" d="M 260.5,179.5 C 262.027,179.427 263.027,180.094 263.5,181.5C 261.973,181.573 260.973,180.906 260.5,179.5 Z"/></g>
<g><path style="opacity:0.329" fill="#b8d8f0" d="M 192.5,180.5 C 194.027,180.427 195.027,181.094 195.5,182.5C 193.973,182.573 192.973,181.906 192.5,180.5 Z"/></g>
<g><path style="opacity:0.369" fill="#b3d4ef" d="M 197.5,183.5 C 199.027,183.427 200.027,184.094 200.5,185.5C 198.973,185.573 197.973,184.906 197.5,183.5 Z"/></g>
<g><path style="opacity:0.38" fill="#add1ee" d="M 267.5,183.5 C 269.027,183.427 270.027,184.094 270.5,185.5C 268.973,185.573 267.973,184.906 267.5,183.5 Z"/></g>
<g><path style="opacity:0.408" fill="#c2def2" d="M 226.5,191.5 C 225.167,192.5 225.167,193.5 226.5,194.5C 223.833,193.5 223.833,192.5 226.5,191.5 Z"/></g>
<g><path style="opacity:0.333" fill="#b5d6ef" d="M 279.5,190.5 C 281.027,190.427 282.027,191.094 282.5,192.5C 280.973,192.573 279.973,191.906 279.5,190.5 Z"/></g>
<g><path style="opacity:0.369" fill="#bddfff" d="M 171.5,194.5 C 173.027,194.427 174.027,195.094 174.5,196.5C 172.973,196.573 171.973,195.906 171.5,194.5 Z"/></g>
<g><path style="opacity:0.298" fill="#c4e3ff" d="M 176.5,197.5 C 178.027,197.427 179.027,198.094 179.5,199.5C 177.973,199.573 176.973,198.906 176.5,197.5 Z"/></g>
<g><path style="opacity:0.278" fill="#c8e4ff" d="M 181.5,200.5 C 183.027,200.427 184.027,201.094 184.5,202.5C 182.973,202.573 181.973,201.906 181.5,200.5 Z"/></g>
<g><path style="opacity:0.031" fill="#f2f9ff" d="M 313.5,202.5 C 317.846,202.334 322.179,202.501 326.5,203C 325.934,203.995 325.267,204.828 324.5,205.5C 321.109,203.875 317.442,202.875 313.5,202.5 Z"/></g>
<g><path style="opacity:0.389" fill="#c1e2ff" d="M 304.5,202.5 C 303.922,205.28 303.255,207.947 302.5,210.5C 301.964,207.302 302.631,204.635 304.5,202.5 Z"/></g>
<g><path style="opacity:0.333" fill="#c1e1ff" d="M 193.5,207.5 C 195.027,207.427 196.027,208.094 196.5,209.5C 194.973,209.573 193.973,208.906 193.5,207.5 Z"/></g>
<g><path style="opacity:0.306" fill="#c4e3ff" d="M 198.5,210.5 C 200.027,210.427 201.027,211.094 201.5,212.5C 199.973,212.573 198.973,211.906 198.5,210.5 Z"/></g>
<g><path style="opacity:0.21" fill="#cfe9ff" d="M 190.5,236.5 C 191.209,235.596 192.209,235.263 193.5,235.5C 193.5,237.833 193.5,240.167 193.5,242.5C 193.06,240.156 192.06,238.156 190.5,236.5 Z"/></g>
<g><path style="opacity:0.361" fill="#bedfff" d="M 240.5,235.5 C 242.027,235.427 243.027,236.094 243.5,237.5C 241.973,237.573 240.973,236.906 240.5,235.5 Z"/></g>
<g><path style="opacity:0.259" fill="#bce0ff" d="M 332.5,264.5 C 332.83,257.468 332.497,250.468 331.5,243.5C 330.583,244.127 329.583,244.461 328.5,244.5C 329.635,242.787 331.302,242.12 333.5,242.5C 333.825,250.019 333.492,257.352 332.5,264.5 Z"/></g>
<g><path style="opacity:0.322" fill="#c1e1ff" d="M 218.5,258.5 C 220.027,258.427 221.027,259.094 221.5,260.5C 219.973,260.573 218.973,259.906 218.5,258.5 Z"/></g>
<g><path style="opacity:0.29" fill="#c6e3ff" d="M 223.5,261.5 C 225.027,261.427 226.027,262.094 226.5,263.5C 224.973,263.573 223.973,262.906 223.5,261.5 Z"/></g>
<g><path style="opacity:0.659" fill="#bee0ff" d="M 289.5,266.5 C 289.027,267.906 288.027,268.573 286.5,268.5C 286.973,267.094 287.973,266.427 289.5,266.5 Z"/></g>
<g><path style="opacity:0.337" fill="#bedfff" d="M 245.5,274.5 C 247.027,274.427 248.027,275.094 248.5,276.5C 246.973,276.573 245.973,275.906 245.5,274.5 Z"/></g>
<g><path style="opacity:0.337" fill="#bfe0ff" d="M 183.5,275.5 C 185.027,275.427 186.027,276.094 186.5,277.5C 184.973,277.573 183.973,276.906 183.5,275.5 Z"/></g>
<g><path style="opacity:0.31" fill="#c3e2ff" d="M 188.5,278.5 C 190.027,278.427 191.027,279.094 191.5,280.5C 189.973,280.573 188.973,279.906 188.5,278.5 Z"/></g>
<g><path style="opacity:0.255" fill="#cae6ff" d="M 193.5,281.5 C 195.027,281.427 196.027,282.094 196.5,283.5C 194.973,283.573 193.973,282.906 193.5,281.5 Z"/></g>
<g><path style="opacity:0.314" fill="#c3e2ff" d="M 210.5,291.5 C 212.027,291.427 213.027,292.094 213.5,293.5C 211.973,293.573 210.973,292.906 210.5,291.5 Z"/></g>
<g><path style="opacity:0.286" fill="#c7e4ff" d="M 215.5,294.5 C 217.027,294.427 218.027,295.094 218.5,296.5C 216.973,296.573 215.973,295.906 215.5,294.5 Z"/></g>
<g><path style="opacity:0.329" fill="#c0e0ff" d="M 232.5,304.5 C 234.027,304.427 235.027,305.094 235.5,306.5C 233.973,306.573 232.973,305.906 232.5,304.5 Z"/></g>
<g><path style="opacity:0.757" fill="#969797" d="M 248.5,314.5 C 249.5,314.5 250.5,314.5 251.5,314.5C 252.833,315.167 254.167,315.833 255.5,316.5C 252.833,316.5 250.167,316.5 247.5,316.5C 247.833,315.833 248.167,315.167 248.5,314.5 Z"/></g>
<g><path style="opacity:0.999" fill="#444444" d="M 247.5,316.5 C 250.167,316.5 252.833,316.5 255.5,316.5C 256.167,316.5 256.5,316.833 256.5,317.5C 256.172,322.875 256.505,328.208 257.5,333.5C 258.107,333.376 258.44,333.043 258.5,332.5C 262.099,331.656 265.766,331.323 269.5,331.5C 273.912,333.418 276.746,336.751 278,341.5C 278.667,347.833 278.667,354.167 278,360.5C 277.617,361.056 277.117,361.389 276.5,361.5C 273.43,361.632 270.43,361.299 267.5,360.5C 266.712,354.915 266.212,349.248 266,343.5C 263.034,340.735 260.367,341.068 258,344.5C 257.667,349.833 257.333,355.167 257,360.5C 256.617,361.056 256.117,361.389 255.5,361.5C 252.43,361.632 249.43,361.299 246.5,360.5C 245.352,346.575 245.186,332.575 246,318.5C 246.278,317.584 246.778,316.918 247.5,316.5 Z"/></g>
<g><path style="opacity:1" fill="#3f3f3f" d="M 384.5,361.5 C 381.193,361.937 378.193,361.27 375.5,359.5C 374.893,359.624 374.56,359.957 374.5,360.5C 372.883,361.972 370.883,362.639 368.5,362.5C 366.117,362.639 364.117,361.972 362.5,360.5C 362.027,359.094 361.027,358.427 359.5,358.5C 353.139,351.843 352.305,344.51 357,336.5C 361.569,330.577 367.069,328.91 373.5,331.5C 373.811,332.478 374.478,333.145 375.5,333.5C 376.495,327.872 376.829,322.206 376.5,316.5C 379.565,315.182 382.731,315.182 386,316.5C 386.667,331.167 386.667,345.833 386,360.5C 385.617,361.056 385.117,361.389 384.5,361.5 Z M 374.5,348.5 C 373.5,348.833 372.833,349.5 372.5,350.5C 367.541,351.372 365.375,349.372 366,344.5C 371.552,339.77 374.385,341.104 374.5,348.5 Z"/></g>
<g><path style="opacity:0.371" fill="#cbe6ff" d="M 167.5,318.5 C 164.162,318.065 161.162,318.732 158.5,320.5C 158.414,319.504 158.748,318.671 159.5,318C 162.367,317.199 165.034,317.366 167.5,318.5 Z"/></g>
<g><path style="opacity:1" fill="#5cafff" d="M 226.5,334.5 C 228.905,335.768 231.572,336.435 234.5,336.5C 238.417,337.248 240.917,339.582 242,343.5C 243.824,356.177 238.324,362.844 225.5,363.5C 219.173,363.172 214.173,360.505 210.5,355.5C 210.5,353.833 210.5,352.167 210.5,350.5C 211.833,349.833 212.833,348.833 213.5,347.5C 214.601,346.402 215.934,346.235 217.5,347C 220.074,349.243 222.908,351.076 226,352.5C 229.798,352.074 230.964,350.241 229.5,347C 222.926,345.629 217.093,342.796 212,338.5C 207.627,325.709 212.127,318.375 225.5,316.5C 230.236,316.912 234.57,318.412 238.5,321C 240.36,325.151 239.36,328.484 235.5,331C 231.956,330.669 228.623,329.502 225.5,327.5C 223.058,328.384 222.225,330.051 223,332.5C 224.302,333.085 225.469,333.751 226.5,334.5 Z"/></g>
<g><path style="opacity:1" fill="#5cafff" d="M 167.5,318.5 C 168.222,318.918 168.722,319.584 169,320.5C 169.931,331.573 169.597,342.573 168,353.5C 163.519,361.823 156.686,364.823 147.5,362.5C 147.027,361.094 146.027,360.427 144.5,360.5C 138.371,357.97 137.371,354.303 141.5,349.5C 143.117,348.962 144.784,348.629 146.5,348.5C 148.928,350.043 151.594,351.043 154.5,351.5C 156.5,351.5 157.5,350.5 157.5,348.5C 157.173,338.985 157.506,329.652 158.5,320.5C 161.162,318.732 164.162,318.065 167.5,318.5 Z"/></g>
<g><path style="opacity:1" fill="#59aeff" d="M 205.5,361.5 C 203.167,361.5 200.833,361.5 198.5,361.5C 196.269,358.164 194.603,354.497 193.5,350.5C 190.375,349.521 187.042,349.187 183.5,349.5C 183.5,353.167 183.5,356.833 183.5,360.5C 183.389,361.117 183.056,361.617 182.5,362C 179.571,362.777 176.737,362.61 174,361.5C 172.778,348.184 172.445,334.85 173,321.5C 173.318,319.939 174.151,318.772 175.5,318C 182.5,317.333 189.5,317.333 196.5,318C 205.647,321.789 209.48,328.622 208,338.5C 206.697,340.94 205.53,343.44 204.5,346C 205.986,349.8 207.32,353.634 208.5,357.5C 208.89,359.982 207.89,361.315 205.5,361.5 Z M 184.5,329.5 C 188.584,329.043 192.417,329.71 196,331.5C 196.896,334.025 196.396,336.192 194.5,338C 191.183,338.498 187.85,338.665 184.5,338.5C 184.5,335.5 184.5,332.5 184.5,329.5 Z"/></g>
<g><path style="opacity:0.476" fill="#a3a3a3" d="M 256.5,317.5 C 257.167,322.5 257.833,327.5 258.5,332.5C 258.44,333.043 258.107,333.376 257.5,333.5C 256.505,328.208 256.172,322.875 256.5,317.5 Z"/></g>
<g><path style="opacity:0.808" fill="#707070" d="M 376.5,316.5 C 376.829,322.206 376.495,327.872 375.5,333.5C 374.478,333.145 373.811,332.478 373.5,331.5C 375.141,326.749 376.141,321.749 376.5,316.5 Z"/></g>
<g><path style="opacity:0.706" fill="#8c8c8c" d="M 303.5,330.5 C 299.131,330.467 294.798,330.8 290.5,331.5C 292.634,329.967 295.134,329.3 298,329.5C 300.033,329.506 301.866,329.839 303.5,330.5 Z"/></g>
<g><path style="opacity:0.831" fill="#808080" d="M 269.5,331.5 C 265.766,331.323 262.099,331.656 258.5,332.5C 258.611,331.883 258.944,331.383 259.5,331C 263.027,330.192 266.36,330.359 269.5,331.5 Z"/></g>
<g><path style="opacity:0.999" fill="#424242" d="M 303.5,330.5 C 306.326,330.998 308.66,332.331 310.5,334.5C 310.427,336.027 311.094,337.027 312.5,337.5C 312.427,339.027 313.094,340.027 314.5,340.5C 317.09,353.589 311.757,361.255 298.5,363.5C 295.92,363.276 293.586,362.609 291.5,361.5C 291.027,360.094 290.027,359.427 288.5,359.5C 287.833,358.167 286.833,357.167 285.5,356.5C 282.544,353.908 281.211,350.574 281.5,346.5C 281.243,341.581 282.91,337.581 286.5,334.5C 288.404,334.262 289.738,333.262 290.5,331.5C 294.798,330.8 299.131,330.467 303.5,330.5 Z M 301.5,350.5 C 299.883,351.038 298.216,351.371 296.5,351.5C 293.67,349.638 292.837,346.971 294,343.5C 297,339.5 300,339.5 303,343.5C 303.833,346.171 303.333,348.504 301.5,350.5 Z"/></g>
<g><path style="opacity:1" fill="#424242" d="M 328.5,331.5 C 328.334,336.844 328.501,342.177 329,347.5C 329.278,348.416 329.778,349.082 330.5,349.5C 333.002,350.779 335.502,350.779 338,349.5C 339.102,343.36 339.935,337.193 340.5,331C 343.791,328.926 346.957,329.092 350,331.5C 350.832,341.517 350.666,351.517 349.5,361.5C 346.039,363.188 343.039,362.854 340.5,360.5C 339.74,358.015 338.74,358.015 337.5,360.5C 329.103,363.903 322.936,361.236 319,352.5C 318.333,345.5 318.333,338.5 319,331.5C 322.28,328.86 325.447,328.86 328.5,331.5 Z"/></g>
<g><path style="opacity:0.698" fill="#9a9a9a" d="M 290.5,331.5 C 289.738,333.262 288.404,334.262 286.5,334.5C 287.262,332.738 288.596,331.738 290.5,331.5 Z"/></g>
<g><path style="opacity:0.059" fill="#d2e9ff" d="M 226.5,334.5 C 229.495,334.294 232.162,334.96 234.5,336.5C 231.572,336.435 228.905,335.768 226.5,334.5 Z"/></g>
<g><path style="opacity:0.804" fill="#717171" d="M 328.5,331.5 C 329.296,337.35 329.963,343.35 330.5,349.5C 329.778,349.082 329.278,348.416 329,347.5C 328.501,342.177 328.334,336.844 328.5,331.5 Z"/></g>
<g><path style="opacity:0.788" fill="#9b9b9b" d="M 310.5,334.5 C 311.906,334.973 312.573,335.973 312.5,337.5C 311.094,337.027 310.427,336.027 310.5,334.5 Z"/></g>
<g><path style="opacity:0.224" fill="#bfbfbf" d="M 312.5,337.5 C 313.906,337.973 314.573,338.973 314.5,340.5C 313.094,340.027 312.427,339.027 312.5,337.5 Z"/></g>
<g><path style="opacity:0.2" fill="#c4e3ff" d="M 146.5,348.5 C 144.784,348.629 143.117,348.962 141.5,349.5C 142.879,347.403 144.545,347.07 146.5,348.5 Z"/></g>
<g><path style="opacity:0.435" fill="#c6e4ff" d="M 213.5,347.5 C 212.833,348.833 211.833,349.833 210.5,350.5C 210.5,348.5 211.5,347.5 213.5,347.5 Z"/></g>
<g><path style="opacity:0.573" fill="#bebebe" d="M 374.5,348.5 C 374.5,349.833 373.833,350.5 372.5,350.5C 372.833,349.5 373.5,348.833 374.5,348.5 Z"/></g>
<g><path style="opacity:0.49" fill="#c7e4ff" d="M 157.5,348.5 C 157.5,350.5 156.5,351.5 154.5,351.5C 155.167,350.167 156.167,349.167 157.5,348.5 Z"/></g>
<g><path style="opacity:0.79" fill="#89c8ff" d="M 193.5,350.5 C 190.5,350.5 187.5,350.5 184.5,350.5C 184.813,354.042 184.479,357.375 183.5,360.5C 183.5,356.833 183.5,353.167 183.5,349.5C 187.042,349.187 190.375,349.521 193.5,350.5 Z"/></g>
<g><path style="opacity:0.459" fill="#a3a3a3" d="M 301.5,350.5 C 300.121,352.597 298.455,352.93 296.5,351.5C 298.216,351.371 299.883,351.038 301.5,350.5 Z"/></g>
<g><path style="opacity:0.529" fill="#d0e9ff" d="M 210.5,350.5 C 210.5,352.167 210.5,353.833 210.5,355.5C 207.833,353.833 207.833,352.167 210.5,350.5 Z"/></g>
<g><path style="opacity:0.004" fill="#cdcdcd" d="M 285.5,356.5 C 286.833,357.167 287.833,358.167 288.5,359.5C 286.5,359.5 285.5,358.5 285.5,356.5 Z"/></g>
<g><path style="opacity:0.012" fill="#c0c0c0" d="M 340.5,360.5 C 339.5,360.5 338.5,360.5 337.5,360.5C 338.74,358.015 339.74,358.015 340.5,360.5 Z"/></g>
<g><path style="opacity:0.365" fill="#bfbfbf" d="M 359.5,358.5 C 361.027,358.427 362.027,359.094 362.5,360.5C 360.973,360.573 359.973,359.906 359.5,358.5 Z"/></g>
<g><path style="opacity:0.341" fill="#b6b6b6" d="M 288.5,359.5 C 290.027,359.427 291.027,360.094 291.5,361.5C 289.973,361.573 288.973,360.906 288.5,359.5 Z"/></g>
<g><path style="opacity:0.165" fill="#d5eaff" d="M 144.5,360.5 C 146.027,360.427 147.027,361.094 147.5,362.5C 145.973,362.573 144.973,361.906 144.5,360.5 Z"/></g>
<g><path style="opacity:0.878" fill="#abd4ff" d="M 198.5,361.5 C 200.833,361.5 203.167,361.5 205.5,361.5C 203.098,363.891 200.764,363.891 198.5,361.5 Z"/></g>
<g><path style="opacity:0.522" fill="#ababab" d="M 246.5,360.5 C 249.43,361.299 252.43,361.632 255.5,361.5C 253.034,362.634 250.367,362.801 247.5,362C 246.944,361.617 246.611,361.117 246.5,360.5 Z"/></g>
<g><path style="opacity:0.518" fill="#acacac" d="M 267.5,360.5 C 270.43,361.299 273.43,361.632 276.5,361.5C 274.034,362.634 271.367,362.801 268.5,362C 267.944,361.617 267.611,361.117 267.5,360.5 Z"/></g>
<g><path style="opacity:0.5" fill="#b7b7b7" d="M 374.5,360.5 C 374.56,359.957 374.893,359.624 375.5,359.5C 378.193,361.27 381.193,361.937 384.5,361.5C 381.045,362.986 377.712,362.653 374.5,360.5 Z"/></g>
<g><path style="opacity:0.288" fill="#c9e6ff" d="M 142.5,383.5 C 141.5,383.5 140.5,383.5 139.5,383.5C 138.167,383.5 136.833,383.5 135.5,383.5C 135.5,387.5 135.5,391.5 135.5,395.5C 134.515,391.366 134.182,387.032 134.5,382.5C 137.385,382.194 140.052,382.527 142.5,383.5 Z"/></g>
<g><path style="opacity:1" fill="#97caff" d="M 139.5,384.5 C 139.5,384.167 139.5,383.833 139.5,383.5C 140.5,383.5 141.5,383.5 142.5,383.5C 146.467,386.256 146.467,388.923 142.5,391.5C 142.5,391.167 142.5,390.833 142.5,390.5C 142.5,390.167 142.5,389.833 142.5,389.5C 142.5,388.5 142.5,387.5 142.5,386.5C 142.027,385.094 141.027,384.427 139.5,384.5 Z"/></g>
<g><path style="opacity:0.243" fill="#c1e0ff" d="M 343.5,381.5 C 345.625,382.368 345.791,383.368 344,384.5C 342.317,383.824 342.15,382.824 343.5,381.5 Z"/></g>
<g><path style="opacity:0.973" fill="#52afff" d="M 139.5,383.5 C 139.5,383.833 139.5,384.167 139.5,384.5C 138.5,384.5 137.5,384.5 136.5,384.5C 136.5,386.5 136.5,388.5 136.5,390.5C 138.5,390.5 140.5,390.5 142.5,390.5C 142.5,390.833 142.5,391.167 142.5,391.5C 140.5,391.5 138.5,391.5 136.5,391.5C 136.5,392.833 136.5,394.167 136.5,395.5C 136.167,396.833 135.833,396.833 135.5,395.5C 135.5,391.5 135.5,387.5 135.5,383.5C 136.833,383.5 138.167,383.5 139.5,383.5 Z"/></g>
<g><path style="opacity:0.051" fill="#f0f8ff" d="M 139.5,384.5 C 141.027,384.427 142.027,385.094 142.5,386.5C 140.883,385.962 139.216,385.629 137.5,385.5C 137.5,386.833 137.5,388.167 137.5,389.5C 139.167,389.5 140.833,389.5 142.5,389.5C 142.5,389.833 142.5,390.167 142.5,390.5C 140.5,390.5 138.5,390.5 136.5,390.5C 136.5,388.5 136.5,386.5 136.5,384.5C 137.5,384.5 138.5,384.5 139.5,384.5 Z"/></g>
<g><path style="opacity:0.122" fill="#e9f4ff" d="M 149.5,386.5 C 150.209,385.596 151.209,385.263 152.5,385.5C 152.5,386.5 152.5,387.5 152.5,388.5C 151.5,388.5 150.5,388.5 149.5,388.5C 149.918,387.778 150.584,387.278 151.5,387C 150.906,386.536 150.239,386.369 149.5,386.5 Z"/></g>
<g><path style="opacity:0.188" fill="#ddefff" d="M 188.5,384.5 C 188.443,385.609 188.11,386.609 187.5,387.5C 186.285,386.221 186.618,385.221 188.5,384.5 Z"/></g>
<g><path style="opacity:0.426" fill="#c1e2ff" d="M 148.5,386.5 C 147.167,389.5 147.167,392.5 148.5,395.5C 148.44,396.043 148.107,396.376 147.5,396.5C 146.167,392.833 146.167,389.167 147.5,385.5C 148.107,385.624 148.44,385.957 148.5,386.5 Z"/></g>
<g><path style="opacity:0.957" fill="#a3d0ff" d="M 203.5,388.5 C 203.675,390.621 203.341,392.621 202.5,394.5C 201.866,395.947 200.699,396.613 199,396.5C 196.808,396.137 194.974,395.137 193.5,393.5C 192.757,389.075 194.59,386.408 199,385.5C 200.981,385.899 202.481,386.899 203.5,388.5 Z M 197.5,388.5 C 202.145,389.28 202.645,391.28 199,394.5C 196.521,392.912 196.021,390.912 197.5,388.5 Z"/></g>
<g><path style="opacity:0.843" fill="#a9d3ff" d="M 211.5,395.5 C 209.233,395.854 207.899,395.521 207.5,394.5C 208.756,394.539 209.756,394.039 210.5,393C 208.347,392.901 206.681,392.067 205.5,390.5C 205.5,389.5 205.5,388.5 205.5,387.5C 207.669,384.932 210.002,384.932 212.5,387.5C 210.922,388.298 209.256,388.798 207.5,389C 210.259,389.559 212.259,391.059 213.5,393.5C 213.145,394.522 212.478,395.189 211.5,395.5 Z"/></g>
<g><path style="opacity:0.065" fill="#e9f5ff" d="M 239.5,395.5 C 239.665,392.482 239.498,389.482 239,386.5C 238.809,388.708 238.309,390.708 237.5,392.5C 237.5,390.167 237.5,387.833 237.5,385.5C 238.5,385.5 239.5,385.5 240.5,385.5C 240.813,389.042 240.479,392.375 239.5,395.5 Z"/></g>
<g><path style="opacity:0.359" fill="#bfe2ff" d="M 259.5,386.5 C 258.523,389.287 258.19,392.287 258.5,395.5C 257.194,392.313 257.194,388.98 258.5,385.5C 259.107,385.624 259.44,385.957 259.5,386.5 Z"/></g>
<g><path style="opacity:0.987" fill="#89c2ff" d="M 344.5,386.5 C 344.81,389.713 344.477,392.713 343.5,395.5C 342.362,392.696 342.195,389.696 343,386.5C 343.69,385.262 344.19,385.262 344.5,386.5 Z"/></g>
<g><path style="opacity:0.11" fill="#ecf7ff" d="M 344.5,386.5 C 345.806,389.687 345.806,393.02 344.5,396.5C 343.893,396.376 343.56,396.043 343.5,395.5C 344.477,392.713 344.81,389.713 344.5,386.5 Z"/></g>
<g><path style="opacity:1" fill="#8fc6ff" d="M 148.5,386.5 C 148.833,386.5 149.167,386.5 149.5,386.5C 150.239,386.369 150.906,386.536 151.5,387C 150.584,387.278 149.918,387.778 149.5,388.5C 149.802,391.059 149.468,393.393 148.5,395.5C 147.167,392.5 147.167,389.5 148.5,386.5 Z"/></g>
<g><path style="opacity:0.827" fill="#96caff" d="M 226.5,386.5 C 227.833,390.5 227.833,394.5 226.5,398.5C 226.657,397.127 226.49,395.793 226,394.5C 224.301,395.406 222.467,395.739 220.5,395.5C 216.238,391.094 217.071,387.761 223,385.5C 224.138,385.989 225.305,386.322 226.5,386.5 Z M 221.5,388.5 C 222.833,388.5 224.167,388.5 225.5,388.5C 225.872,391.022 225.039,393.022 223,394.5C 220.521,392.912 220.021,390.912 221.5,388.5 Z"/></g>
<g><path style="opacity:0.235" fill="#d2eaff" d="M 226.5,386.5 C 226.56,385.957 226.893,385.624 227.5,385.5C 228.833,390.167 228.833,394.833 227.5,399.5C 226.893,399.376 226.56,399.043 226.5,398.5C 227.833,394.5 227.833,390.5 226.5,386.5 Z"/></g>
<g><path style="opacity:0.875" fill="#a8d3ff" d="M 313.5,386.5 C 314.5,387.167 315.5,387.833 316.5,388.5C 315.178,388.33 314.011,388.663 313,389.5C 312.814,391.9 312.314,394.234 311.5,396.5C 311.167,396.333 310.833,396.167 310.5,396C 310.38,393.211 310.047,390.378 309.5,387.5C 310.437,385.358 311.77,385.024 313.5,386.5 Z"/></g>
<g><path style="opacity:0.725" fill="#9cccff" d="M 317.5,386.5 C 318.091,387.151 318.757,387.818 319.5,388.5C 318.933,390.982 318.266,393.316 317.5,395.5C 316.532,393.393 316.198,391.059 316.5,388.5C 315.5,387.833 314.5,387.167 313.5,386.5C 314.833,385.167 316.167,385.167 317.5,386.5 Z"/></g>
<g><path style="opacity:0.729" fill="#c2e0ff" d="M 366.5,387.5 C 365.596,388.209 365.263,389.209 365.5,390.5C 363.833,390.5 362.167,390.5 360.5,390.5C 361.609,389.71 362.942,389.21 364.5,389C 362.5,388.667 360.5,388.333 358.5,388C 361.139,384.958 363.806,384.791 366.5,387.5 Z"/></g>
<g><path style="opacity:0.946" fill="#abd4ff" d="M 193.5,393.5 C 193.5,394.5 193.5,395.5 193.5,396.5C 191.856,396.714 190.356,396.38 189,395.5C 187.775,392.849 187.275,390.182 187.5,387.5C 188.11,386.609 188.443,385.609 188.5,384.5C 188.56,383.957 188.893,383.624 189.5,383.5C 190.719,384.646 192.052,385.646 193.5,386.5C 191.262,388.258 190.262,390.592 190.5,393.5C 191.5,393.5 192.5,393.5 193.5,393.5 Z"/></g>
<g><path style="opacity:0.592" fill="#b0d6ff" d="M 258.5,395.5 C 258.19,392.287 258.523,389.287 259.5,386.5C 263.453,386.41 267.453,386.243 271.5,386C 274.878,389.379 275.212,392.879 272.5,396.5C 271.686,394.234 271.186,391.9 271,389.5C 269.989,388.663 268.822,388.33 267.5,388.5C 267.663,390.857 267.497,393.19 267,395.5C 266.586,395.957 266.086,396.291 265.5,396.5C 264.52,393.914 264.187,391.247 264.5,388.5C 263.167,388.5 261.833,388.5 260.5,388.5C 260.663,390.857 260.497,393.19 260,395.5C 259.31,396.738 258.81,396.738 258.5,395.5 Z"/></g>
<g><path style="opacity:0.008" fill="#ecf6ff" d="M 375.5,386.5 C 376.043,386.56 376.376,386.893 376.5,387.5C 375.271,388.281 373.938,388.781 372.5,389C 373.056,389.383 373.389,389.883 373.5,390.5C 372.244,390.539 371.244,390.039 370.5,389C 372.175,388.015 373.842,387.181 375.5,386.5 Z"/></g>
<g><path style="opacity:0.094" fill="#e8f4ff" d="M 205.5,387.5 C 205.5,388.5 205.5,389.5 205.5,390.5C 204.596,391.209 204.263,392.209 204.5,393.5C 205.791,393.263 206.791,393.596 207.5,394.5C 207.899,395.521 209.233,395.854 211.5,395.5C 210.726,396.147 209.726,396.48 208.5,396.5C 206.307,396.281 204.307,395.615 202.5,394.5C 203.341,392.621 203.675,390.621 203.5,388.5C 204.167,388.167 204.833,387.833 205.5,387.5 Z"/></g>
<g><path style="opacity:0.028" fill="#dceeff" d="M 244.5,386.5 C 245.833,387.167 247.167,387.833 248.5,388.5C 249.043,388.56 249.376,388.893 249.5,389.5C 246.862,390.833 244.529,390.5 242.5,388.5C 242.5,387.167 243.167,386.5 244.5,386.5 Z"/></g>
<g><path style="opacity:0.833" fill="#b5d9ff" d="M 301.5,385.5 C 308.215,386.117 310.215,389.617 307.5,396C 303.541,397.362 300.541,396.362 298.5,393C 300.056,390.386 302.39,389.053 305.5,389C 303.423,388.808 301.423,388.308 299.5,387.5C 300.243,386.818 300.909,386.151 301.5,385.5 Z M 302.5,392.5 C 306.243,392.459 306.41,393.126 303,394.5C 302.536,393.906 302.369,393.239 302.5,392.5 Z"/></g>
<g><path style="opacity:0.324" fill="#cee8ff" d="M 325.5,387.5 C 326.803,390.355 326.803,393.355 325.5,396.5C 324.893,396.376 324.56,396.043 324.5,395.5C 325.473,393.052 325.806,390.385 325.5,387.5 Z"/></g>
<g><path style="opacity:0.89" fill="#b7dbff" d="M 295.5,381.5 C 296.117,381.611 296.617,381.944 297,382.5C 297.499,387.155 297.666,391.821 297.5,396.5C 294.813,396.664 292.146,396.497 289.5,396C 285.176,391.301 286.01,387.801 292,385.5C 292.772,385.645 293.439,385.978 294,386.5C 294.352,384.753 294.852,383.086 295.5,381.5 Z M 294.5,388.5 C 294.784,390.415 294.451,392.081 293.5,393.5C 291.641,393.539 290.308,392.706 289.5,391C 290.617,389.108 292.284,388.275 294.5,388.5 Z"/></g>
<g><path style="opacity:1" fill="#77bcff" d="M 293.5,393.5 C 294.451,392.081 294.784,390.415 294.5,388.5C 295.148,386.914 295.648,385.247 296,383.5C 296.667,387.5 296.667,391.5 296,395.5C 294.355,395.307 292.521,395.14 290.5,395C 291.737,394.768 292.737,394.268 293.5,393.5 Z"/></g>
<g><path style="opacity:0.384" fill="#abd4ff" d="M 325.5,387.5 C 325.806,390.385 325.473,393.052 324.5,395.5C 324.662,393.473 324.495,391.473 324,389.5C 322.286,388.075 320.953,388.408 320,390.5C 319.808,392.577 319.308,394.577 318.5,396.5C 317.893,396.376 317.56,396.043 317.5,395.5C 318.266,393.316 318.933,390.982 319.5,388.5C 318.757,387.818 318.091,387.151 317.5,386.5C 319.199,386.38 320.865,386.046 322.5,385.5C 324.038,385.453 325.038,386.12 325.5,387.5 Z"/></g>
<g><path style="opacity:0.272" fill="#d5ebff" d="M 366.5,387.5 C 367.803,390.355 367.803,393.355 366.5,396.5C 365.893,396.376 365.56,396.043 365.5,395.5C 366.473,393.052 366.806,390.385 366.5,387.5 Z"/></g>
<g><path style="opacity:0.205" fill="#e2f2ff" d="M 142.5,391.5 C 141.081,392.451 139.415,392.784 137.5,392.5C 137.737,393.791 137.404,394.791 136.5,395.5C 136.5,394.167 136.5,392.833 136.5,391.5C 138.5,391.5 140.5,391.5 142.5,391.5 Z"/></g>
<g><path style="opacity:0.69" fill="#acd5ff" d="M 152.5,388.5 C 156.366,384.336 159.866,384.669 163,389.5C 164.8,385.925 167.467,384.925 171,386.5C 170.689,385.065 170.855,383.732 171.5,382.5C 172.274,381.289 173.107,381.289 174,382.5C 173.934,385.578 174.101,388.578 174.5,391.5C 174.224,393.33 173.557,394.997 172.5,396.5C 170.264,396.583 167.93,396.25 165.5,395.5C 164.416,394.335 163.583,393.002 163,391.5C 161.002,396.669 157.669,397.669 153,394.5C 152.505,392.527 152.338,390.527 152.5,388.5 Z M 166.5,388.5 C 167.833,388.5 169.167,388.5 170.5,388.5C 170.5,390.167 170.5,391.833 170.5,393.5C 169.167,393.5 167.833,393.5 166.5,393.5C 166.5,391.833 166.5,390.167 166.5,388.5 Z M 155.5,388.5 C 159.138,387.737 160.638,389.07 160,392.5C 155.757,393.981 154.257,392.647 155.5,388.5 Z"/></g>
<g><path style="opacity:0.953" fill="#93c8ff" d="M 250.5,391.5 C 248.076,391.192 245.743,391.526 243.5,392.5C 243.624,393.107 243.957,393.44 244.5,393.5C 245.609,393.557 246.609,393.89 247.5,394.5C 248.492,394.328 249.158,394.662 249.5,395.5C 246.57,397.074 244.07,396.408 242,393.5C 241.22,391.613 241.387,389.946 242.5,388.5C 244.529,390.5 246.862,390.833 249.5,389.5C 249.376,388.893 249.043,388.56 248.5,388.5C 247.167,387.833 245.833,387.167 244.5,386.5C 247.978,384.904 250.311,386.07 251.5,390C 251.43,390.765 251.097,391.265 250.5,391.5 Z"/></g>
<g><path style="opacity:0.011" fill="#e6f3ff" d="M 250.5,391.5 C 250.768,393.099 250.434,394.432 249.5,395.5C 249.158,394.662 248.492,394.328 247.5,394.5C 247.918,393.778 248.584,393.278 249.5,393C 247.613,392.22 245.946,392.387 244.5,393.5C 243.957,393.44 243.624,393.107 243.5,392.5C 245.743,391.526 248.076,391.192 250.5,391.5 Z"/></g>
<g><path style="opacity:0.549" fill="#b1d8ff" d="M 338.5,394.5 C 337.609,395.11 336.609,395.443 335.5,395.5C 333.217,392.339 332.217,389.006 332.5,385.5C 334.232,387.283 335.732,389.283 337,391.5C 337.914,389.336 339.081,387.336 340.5,385.5C 341.494,388.856 340.827,391.856 338.5,394.5 Z"/></g>
<g><path style="opacity:1" fill="#aad3ff" d="M 356.5,395.5 C 356.666,391.486 356.499,387.486 356,383.5C 355.819,386.695 355.319,389.695 354.5,392.5C 354.833,389.5 353.5,388.167 350.5,388.5C 349.351,388.791 348.684,389.624 348.5,391C 348.528,392.07 348.861,392.903 349.5,393.5C 350.609,394.29 351.942,394.79 353.5,395C 352.207,395.49 350.873,395.657 349.5,395.5C 345.527,392.46 345.527,389.294 349.5,386C 351.112,385.28 352.612,385.446 354,386.5C 354.216,384.616 354.883,382.949 356,381.5C 357.109,383.8 357.609,386.3 357.5,389C 357.496,391.361 357.163,393.527 356.5,395.5 Z M 350.5,388.5 C 353.5,388.167 354.833,389.5 354.5,392.5C 352.958,393.301 351.292,393.634 349.5,393.5C 348.861,392.903 348.528,392.07 348.5,391C 348.684,389.624 349.351,388.791 350.5,388.5 Z"/></g>
<g><path style="opacity:0.02" fill="#e8f3ff" d="M 350.5,388.5 C 349.699,390.042 349.366,391.708 349.5,393.5C 349.366,391.708 349.699,390.042 350.5,388.5 Z"/></g>
<g><path style="opacity:0.953" fill="#53b1ff" d="M 356.5,395.5 C 355.094,395.027 354.427,394.027 354.5,392.5C 355.319,389.695 355.819,386.695 356,383.5C 356.499,387.486 356.666,391.486 356.5,395.5 Z"/></g>
<g><path style="opacity:0.647" fill="#b4d9ff" d="M 176.5,385.5 C 178.369,387.635 179.036,390.302 178.5,393.5C 179.833,393.5 181.167,393.5 182.5,393.5C 182.104,390.518 182.771,387.851 184.5,385.5C 185.915,389.317 185.748,392.984 184,396.5C 176.2,396.967 173.7,393.3 176.5,385.5 Z"/></g>
<g><path style="opacity:0.659" fill="#95cbff" d="M 285.5,395.5 C 283.331,394.918 280.998,394.918 278.5,395.5C 277.883,395.389 277.383,395.056 277,394.5C 276.179,391.446 276.345,388.446 277.5,385.5C 278.48,388.086 278.813,390.753 278.5,393.5C 279.978,393.762 281.311,393.429 282.5,392.5C 283.06,390.146 283.727,387.813 284.5,385.5C 285.487,388.768 285.82,392.102 285.5,395.5 Z"/></g>
<g><path style="opacity:1" fill="#83c1ff" d="M 366.5,387.5 C 366.806,390.385 366.473,393.052 365.5,395.5C 362.226,397.266 359.893,396.432 358.5,393C 358.639,391.699 359.305,390.866 360.5,390.5C 362.167,390.5 363.833,390.5 365.5,390.5C 365.263,389.209 365.596,388.209 366.5,387.5 Z M 364.5,393.5 C 363.833,393.833 363.167,394.167 362.5,394.5C 362.711,392.576 363.377,392.243 364.5,393.5 Z"/></g>
<g><path style="opacity:0.024" fill="#f1f8ff" d="M 364.5,393.5 C 363.377,392.243 362.711,392.576 362.5,394.5C 360.952,394.179 360.285,393.179 360.5,391.5C 362.288,391.215 363.955,391.548 365.5,392.5C 365.376,393.107 365.043,393.44 364.5,393.5 Z"/></g>
<g><path style="opacity:0.808" fill="#8fc6ff" d="M 237.5,392.5 C 238.309,390.708 238.809,388.708 239,386.5C 239.498,389.482 239.665,392.482 239.5,395.5C 237.374,395.15 235.041,395.15 232.5,395.5C 231.883,395.389 231.383,395.056 231,394.5C 230.179,391.446 230.345,388.446 231.5,385.5C 232.273,387.813 232.94,390.146 233.5,392.5C 234.808,393.626 236.142,393.626 237.5,392.5 Z"/></g>
<g><path style="opacity:0.718" fill="#cfe7ff" d="M 354.5,392.5 C 354.427,394.027 355.094,395.027 356.5,395.5C 354.167,396.833 351.833,396.833 349.5,395.5C 350.873,395.657 352.207,395.49 353.5,395C 351.942,394.79 350.609,394.29 349.5,393.5C 351.292,393.634 352.958,393.301 354.5,392.5 Z"/></g>
<g><path style="opacity:0.747" fill="#abd4ff" d="M 375.5,386.5 C 373.842,387.181 372.175,388.015 370.5,389C 371.244,390.039 372.244,390.539 373.5,390.5C 377.467,391.254 378.133,393.087 375.5,396C 373.5,396.667 371.5,396.667 369.5,396C 369.043,395.586 368.709,395.086 368.5,394.5C 370.006,393.253 371.506,393.253 373,394.5C 373.5,394 374,393.5 374.5,393C 372.754,392.529 371.087,391.862 369.5,391C 368.089,387.718 369.255,385.884 373,385.5C 374.07,385.528 374.903,385.861 375.5,386.5 Z"/></g>
<g><path style="opacity:0.081" fill="#eff7ff" d="M 226.5,398.5 C 224.639,397.158 222.639,396.158 220.5,395.5C 222.467,395.739 224.301,395.406 226,394.5C 226.49,395.793 226.657,397.127 226.5,398.5 Z"/></g>
<g><path style="opacity:0.006" fill="#f1f8ff" d="M 239.5,395.5 C 237.167,396.833 234.833,396.833 232.5,395.5C 235.041,395.15 237.374,395.15 239.5,395.5 Z"/></g>
<g><path style="opacity:0.022" fill="#f0f7ff" d="M 285.5,395.5 C 283.167,396.833 280.833,396.833 278.5,395.5C 280.998,394.918 283.331,394.918 285.5,395.5 Z"/></g>
<g><path style="opacity:0.008" fill="#f3f9ff" d="M 338.5,394.5 C 337.947,396.552 336.947,396.885 335.5,395.5C 336.609,395.443 337.609,395.11 338.5,394.5 Z"/></g>
</svg>
