<?xml version="1.0" standalone="no"?>
<!DOCTYPE svg PUBLIC "-//W3C//DTD SVG 20010904//EN"
 "http://www.w3.org/TR/2001/REC-SVG-20010904/DTD/svg10.dtd">
<svg version="1.0" xmlns="http://www.w3.org/2000/svg"
 width="38.88" height="32" viewBox="0 0 500.000000 500.000000"
 preserveAspectRatio="xMidYMid meet">

<g transform="translate(0.000000,500.000000) scale(0.100000,-0.100000)"
fill="#000000" stroke="none">
<path d="M2160 3676 c-168 -100 -349 -210 -404 -243 l-98 -61 103 -61 c57 -34
110 -59 117 -56 8 3 138 79 290 169 153 89 286 168 298 174 22 11 84 -22 518
-275 136 -79 132 -78 219 -47 47 17 55 16 145 -11 20 -7 22 -4 22 24 0 52 -24
84 -97 127 -266 159 -773 444 -789 443 -10 0 -156 -83 -324 -183z"/>
<path d="M2193 3398 c-161 -95 -293 -175 -293 -178 0 -9 225 -140 239 -140 7
0 86 43 174 95 89 52 167 95 175 95 8 0 83 -41 168 -90 85 -50 165 -95 177
-101 21 -9 40 -2 143 56 65 36 122 69 126 73 5 6 -598 362 -613 362 -2 0 -136
-78 -296 -172z"/>
<path d="M2375 3134 c-60 -36 -111 -67 -112 -68 -6 -5 234 -140 247 -139 14 1
230 121 230 128 0 5 -240 145 -248 145 -4 0 -56 -30 -117 -66z"/>
<path d="M2488 1829 c-16 -9 -18 -30 -18 -217 0 -114 4 -213 9 -220 5 -8 23
-12 47 -10 l39 3 5 84 c5 77 7 86 32 104 25 19 28 19 52 3 24 -15 26 -22 26
-94 0 -42 4 -83 9 -90 5 -8 23 -12 47 -10 l39 3 3 90 c3 107 0 124 -34 164
-36 43 -92 59 -134 37 -18 -9 -35 -16 -37 -16 -1 0 -3 36 -3 80 0 68 -3 81
-19 90 -24 12 -41 12 -63 -1z"/>
<path d="M3777 1825 c-13 -12 -17 -35 -17 -91 l0 -74 -25 16 c-69 45 -186 -45
-185 -143 1 -101 113 -184 192 -142 14 8 23 8 31 0 19 -19 75 -13 87 9 12 21
11 413 -1 424 -16 16 -67 17 -82 1z m-39 -251 c42 -29 19 -94 -33 -94 -33 0
-60 41 -46 69 10 18 37 40 51 41 3 0 16 -7 28 -16z"/>
<path d="M2937 1686 c-73 -27 -107 -76 -107 -154 0 -54 25 -100 73 -136 21
-16 43 -21 87 -21 66 0 99 18 138 75 44 65 21 171 -47 215 -47 31 -97 38 -144
21z m95 -113 c52 -47 -18 -127 -77 -89 -46 30 -22 106 33 106 14 0 34 -7 44
-17z"/>
<path d="M3200 1671 c-13 -25 -13 -135 1 -184 16 -60 57 -98 110 -104 33 -4
53 -1 71 11 23 15 26 15 31 1 8 -18 67 -21 85 -3 15 15 17 251 2 279 -7 13
-21 19 -45 19 -45 0 -55 -20 -55 -112 0 -81 -9 -98 -50 -98 -42 0 -50 17 -50
101 0 57 -4 82 -16 93 -22 23 -71 20 -84 -3z"/>
</g>
</svg>
